<svg width="10" height="6" viewBox="0 0 10 6" fill="none" xmlns="http://www.w3.org/2000/svg">
<path d="M1.46875 0.53125C1.33333 0.40625 1.17708 0.34375 1 0.34375C0.822917 0.34375 0.666667 0.411458 0.53125 0.546875C0.40625 0.671875 0.34375 0.822917 0.34375 1C0.34375 1.17708 0.40625 1.33333 0.53125 1.46875L4.53125 5.46875C4.66667 5.60417 4.82292 5.67188 5 5.67188C5.17708 5.67188 5.33333 5.60417 5.46875 5.46875L9.46875 1.46875C9.5625 1.38542 9.625 1.28646 9.65625 1.17188C9.6875 1.05729 9.6875 0.942708 9.65625 0.828125C9.625 0.703125 9.56771 0.598958 9.48438 0.515625C9.40104 0.432292 9.29688 0.375 9.17188 0.34375C9.05729 0.3125 8.94271 0.3125 8.82812 0.34375C8.71354 0.375 8.61458 0.4375 8.53125 0.53125L5 4.0625L1.46875 0.53125Z" fill="black"/>
</svg>
